<svg fill="none" height="24" viewBox="0 0 24 24" width="24" xmlns="http://www.w3.org/2000/svg"><g fill="#292d32"><path d="m18.0003 7.91002c-.03 0-.05 0-.08 0h-.05c-1.89-.06-3.3-1.52001-3.3-3.32001 0-1.84 1.5-3.33 3.33-3.33s3.33 1.5 3.33 3.33c-.01 1.81-1.42 3.27-3.22 3.33 0-.01 0-.00999-.01-.00999zm-.1-5.16c-1.01 0-1.83.82-1.83 1.83 0 .99.77 1.79 1.76 1.83.01-.01.09-.01.18 0 .97-.05 1.72-.85 1.73-1.83 0-1.01-.82-1.83-1.84-1.83z"/><path d="m18.0105 15.2801c-.39 0-.78-.03-1.17-.1-.41-.07-.68-.46-.61-.87s.46-.68.87-.61c1.23.21 2.53-.0199 3.4-.5999.47-.31.72-.7001.72-1.0901s-.26-.77-.72-1.08c-.87-.58-2.19-.81-3.43-.59-.41.08-.8-.2-.87-.60995-.07-.41.2-.8.61-.87 1.63-.29 3.32.01999 4.52.81999.88.58996 1.39 1.42996 1.39 2.32996 0 .89-.5 1.7401-1.39 2.3401-.91.6-2.09.9299-3.32.9299z"/><path d="m5.97047 7.91c-.01 0-.02 0-.02 0-1.8-.06-3.21-1.52-3.22-3.32 0-1.84 1.5-3.34 3.33-3.34s3.33 1.5 3.33 3.33c0 1.81-1.41 3.27-3.21 3.33l-.21-.75.07.75c-.02 0-.05 0-.07 0zm.1-1.5c.06 0 .11 0 .17.01.89-.04 1.67-.84 1.67-1.83 0-1.01-.82-1.83001-1.83-1.83001s-1.83.82001-1.83 1.83001c0 .98.76 1.77 1.73 1.83.01-.01.05-.01.09-.01z"/><path d="m5.96 15.2801c-1.23 0-2.41-.3299-3.32-.9299-.88-.59-1.39-1.4401-1.39-2.3401 0-.89.51-1.74 1.39-2.32996 1.2-.8 2.89-1.10999 4.52-.81999.41.07.68.46.61.87-.07.40995-.46.68995-.87.60995-1.24-.22-2.55.01-3.43.59-.47.31-.72.69-.72 1.08s.26.7801.72 1.0901c.87.58 2.17.8099 3.4.5999.41-.07.8.21.87.61.07.41-.2.8-.61.87-.39.07-.78.1-1.17.1z"/><path d="m12.0003 15.38c-.03 0-.05 0-.08 0h-.05c-1.88999-.06-3.29999-1.52-3.29999-3.32 0-1.84 1.49999-3.33002 3.32999-3.33002s3.33 1.50002 3.33 3.33002c-.01 1.81-1.42 3.27-3.22 3.33 0-.01 0-.01-.01-.01zm-.1-5.16c-1.01 0-1.83.82-1.83 1.83 0 .99.77 1.79 1.76 1.83.01-.01.09-.01.18 0 .97-.05 1.72-.85 1.73-1.83 0-1-.82-1.83-1.84-1.83z"/><path d="m11.9993 22.76c-1.2 0-2.4-.31-3.33-.94-.88-.59-1.39-1.43-1.39-2.33 0-.89.5-1.75 1.39-2.34 1.87-1.24 4.8-1.24 6.66 0 .88.59 1.39 1.43 1.39 2.33 0 .89-.5 1.75-1.39 2.34-.93.62-2.13.94-3.33.94zm-2.5-4.35c-.47.31-.72.7-.72 1.09s.26.77.72 1.08c1.35.91 3.64.91 4.99 0 .47-.31.72-.7.72-1.09s-.26-.77-.72-1.08c-1.34-.91-3.63-.9-4.99 0z"/></g></svg>